# xmcd
#
# Track frame offsets: 
#        150
#        2410
#        18665
#        32550
#        38915
#        53350
#        68905
#        83735
#        124207
#        128955
#        149482
#        164577
#        175315
#        201587
#        207347
#
# Disc length: 2982 seconds
#
# Revision: 6
# Processed by: cddbd v1.5.2PL0 Copyright (c) Steve Scherf et al.
# Submitted via: ExactAudioCopy v1.3
#
DISCID=d50ba40f
DTITLE=Gomez - Abandoned Shopping Trolley Hotline
DYEAR=2000
DGENRE=Indie
TTITLE0=Shitbag 9
TTITLE1=Bring Your Lovin' Back Here
TTITLE2=Emergency Surgery
TTITLE3=Hit On The Head
TTITLE4=Flavors
TTITLE5=78 Stone Shuffle
TTITLE6=We Haven't Turned Around (X-ray)
TTITLE7=Buena Vista
TTITLE8=Shitbag
TTITLE9=Steve McCroski
TTITLE10=Wharf Me
TTITLE11=High On Liquid Skin
TTITLE12=Rosemary
TTITLE13=The Cowboy Song
TTITLE14=Getting Better
EXTD=
EXTT0=
EXTT1=
EXTT2=
EXTT3=
EXTT4=
EXTT5=
EXTT6=
EXTT7=
EXTT8=
EXTT9=
EXTT10=
EXTT11=
EXTT12=
EXTT13=
EXTT14=
PLAYORDER=
